<svg width="77" height="75" viewBox="0 0 77 75" fill="none" xmlns="http://www.w3.org/2000/svg">
    <g clip-path="url(#clip0)">
        <path d="M70.8223 32.706V10.952C70.8223 10.3606 70.4413 9.83622 69.8788 9.6537L40.3804 0.0673242C40.0817 -0.0302329 39.773 -0.0183679 39.4996 0.0809471C39.2238 -0.017489 38.9159 -0.029354 38.6172 0.0673242L9.11967 9.6537C8.55704 9.83607 8.17618 10.3596 8.17618 10.952L8.17794 32.6543C8.16607 32.9716 7.33713 64.5277 38.7939 74.9304C38.9322 74.9771 39.0781 75 39.2232 75H39.7774C39.9225 75 40.0684 74.9771 40.2067 74.9304C71.6624 64.5277 70.8335 32.9707 70.8223 32.706ZM39.5557 72.2694H39.4437C10.1743 62.4582 10.8616 33.967 10.9059 32.706V11.9431L39.4599 2.66372C39.4736 2.65947 39.4863 2.65435 39.4998 2.6501C39.5116 2.65435 39.5253 2.65947 39.538 2.66372L68.0928 11.9438L68.0946 32.7586C68.1055 33.0539 68.8785 62.4352 39.5557 72.2694Z" fill="#0D2C56"/>
        <path d="M62.3016 14.8315L40.1649 7.38233C39.9732 7.31875 39.7746 7.30337 39.5904 7.31875C39.4054 7.3044 39.2094 7.31875 39.0159 7.38233L16.8818 14.8314C16.3276 15.0189 15.9526 15.539 15.9526 16.1254L15.9544 33.076C15.962 33.3195 17.0685 57.5674 39.0975 66.1008C39.2562 66.1619 39.4242 66.1926 39.5904 66.1926C39.7567 66.1926 39.9247 66.1619 40.0834 66.1008C62.1132 57.5674 63.2214 33.3196 63.2306 33.0277V16.1254C63.23 15.5392 62.8558 15.019 62.3016 14.8315ZM39.5904 63.3619C19.7388 55.3189 18.6899 33.2042 18.6823 33.0286V17.1062L39.5904 10.0695L60.5011 17.1062L60.5019 32.9793C60.4927 33.2033 59.4421 55.3189 39.5904 63.3619Z" fill="#0D2C56"/>
        <path d="M55.2159 27.4191C54.6355 26.9338 53.7742 27.0152 53.2931 27.5922L37.4965 46.5123L27.3068 35.8118C26.7833 35.2636 25.9221 35.2466 25.3773 35.7634C24.831 36.2836 24.8097 37.1481 25.329 37.6929L36.5743 49.5024C36.8331 49.7731 37.1902 49.9266 37.5636 49.9266C37.578 49.9266 37.5925 49.9266 37.6077 49.9249C37.9972 49.913 38.3621 49.734 38.6115 49.4361L55.3891 29.3408C55.8717 28.7623 55.7945 27.9019 55.2159 27.4191Z" fill="#0D2C56"/>
    </g>
    <defs>
        <clipPath id="clip0">
            <rect width="75" height="75" fill="white" transform="translate(2)"/>
        </clipPath>
    </defs>
</svg>
