<svg width="77" height="75" viewBox="0 0 77 75" fill="none" xmlns="http://www.w3.org/2000/svg">
    <path d="M49.8651 2.7832C45.2504 2.7825 40.7305 4.09319 36.832 6.56256C32.9335 9.03193 29.8171 12.5583 27.8457 16.7308C25.8744 20.9033 25.1293 25.55 25.6973 30.1297C26.2654 34.7093 28.1232 39.0333 31.0542 42.5976L23.437 50.0127L23.0854 49.6611C22.8944 49.4695 22.6353 49.3612 22.3647 49.3599C22.0941 49.3586 21.834 49.4643 21.6411 49.6541L5.45339 65.5664C5.26062 65.7558 5.15044 66.0137 5.14682 66.284C5.1432 66.5543 5.24643 66.815 5.43406 67.0096L10.2094 71.9601C10.3036 72.0575 10.416 72.1354 10.5403 72.1892C10.6646 72.243 10.7983 72.2717 10.9337 72.2736H10.9471C11.216 72.2741 11.4742 72.1689 11.6661 71.9807L27.9434 55.9846C28.04 55.8898 28.1168 55.7768 28.1695 55.6521C28.2221 55.5275 28.2496 55.3936 28.2502 55.2583C28.2509 55.123 28.2247 54.9889 28.1733 54.8637C28.1218 54.7386 28.0461 54.6248 27.9505 54.5291L27.4981 54.0762L35.2038 46.5762C38.2866 48.9007 41.878 50.4589 45.6816 51.1221C49.4852 51.7853 53.3919 51.5345 57.0795 50.3904C60.7671 49.2464 64.1298 47.2418 66.8901 44.5422C69.6504 41.8426 71.7292 38.5253 72.9549 34.8641C74.1807 31.2028 74.5182 27.3026 73.9397 23.4852C73.3613 19.6678 71.8833 16.0427 69.6279 12.909C67.3724 9.77525 64.4041 7.22279 60.9679 5.4622C57.5317 3.7016 53.7261 2.78335 49.8651 2.7832ZM10.9647 69.7928L7.61316 66.3182L22.3548 51.8291L25.7684 55.2469L10.9647 69.7928ZM24.886 51.4617L32.4241 44.1246C32.8097 44.5195 33.2054 44.8988 33.6112 45.2625L26.0485 52.6254L24.886 51.4617ZM49.8651 49.4355C44.7332 49.4301 39.7591 47.66 35.7774 44.4223C34.8645 43.6744 34.0105 42.8576 33.2227 41.9789C29.8247 38.1692 27.8365 33.309 27.5902 28.21C27.3439 23.111 28.8545 18.0818 31.8697 13.9624C34.8848 9.84293 39.222 6.88264 44.1569 5.57586C49.0918 4.26908 54.3256 4.69492 58.9843 6.78227C63.643 8.86962 67.4446 12.4921 69.7542 17.0448C72.0637 21.5974 72.7414 26.8046 71.6741 31.7968C70.6068 36.7889 67.8591 41.2638 63.8898 44.4741C59.9206 47.6843 54.9701 49.4357 49.8651 49.4355Z" fill="#0D2C56"/>
    <path d="M49.8653 6.29883C45.8462 6.29877 41.9128 7.46113 38.5393 9.64579C35.1658 11.8305 32.4961 14.9442 30.852 18.6117C29.208 22.2792 28.6597 26.3439 29.2733 30.3159C29.887 34.2879 31.6363 37.9977 34.3104 40.998C35.0477 41.8211 35.8473 42.586 36.7022 43.2861C40.4105 46.3331 45.0657 47.9909 49.8653 47.9736C55.3913 47.9736 60.691 45.7784 64.5985 41.8709C68.506 37.9634 70.7012 32.6637 70.7012 27.1377C70.7012 21.6117 68.506 16.312 64.5985 12.4045C60.691 8.49697 55.3913 6.30176 49.8653 6.30176V6.29883ZM49.8653 45.9199C45.5387 45.9363 41.3419 44.4429 37.9983 41.6971C37.2265 41.0645 36.5045 40.3736 35.8385 39.6305C32.9783 36.42 31.306 32.3256 31.1008 28.0308C30.8956 23.7359 32.1699 19.5007 34.711 16.0322C37.252 12.5636 40.906 10.0718 45.0629 8.97262C49.2197 7.87347 53.6278 8.23355 57.5512 9.99274C61.4746 11.7519 64.6757 14.8038 66.6202 18.6387C68.5647 22.4736 69.1347 26.8595 68.2352 31.0641C67.3358 35.2687 65.0211 39.0375 61.6779 41.7412C58.3346 44.4449 54.165 45.9199 49.8653 45.9199Z" fill="#0D2C56"/>
</svg>
