<svg width="77" height="75" viewBox="0 0 77 75" fill="none" xmlns="http://www.w3.org/2000/svg">
    <path d="M71.1915 36.4747H39.9757L45.5556 30.8948C45.7479 30.7025 45.8559 30.4417 45.8559 30.1697C45.8559 29.8978 45.7479 29.6369 45.5556 29.4446C45.3632 29.2523 45.1024 29.1443 44.8305 29.1443C44.5585 29.1443 44.2977 29.2523 44.1054 29.4446L36.7764 36.7735C36.7281 36.822 36.6847 36.8752 36.647 36.9323C36.6323 36.9546 36.6223 36.9786 36.6095 37.0015C36.5679 37.0643 36.5383 37.1342 36.5222 37.2077C36.5128 37.2382 36.5011 37.2663 36.4946 37.2997C36.4683 37.4322 36.4683 37.5686 36.4946 37.7011C36.5011 37.7327 36.5128 37.7597 36.5216 37.7925C36.5302 37.8262 36.5405 37.8595 36.5526 37.8921C36.57 37.9288 36.5896 37.9644 36.6112 37.9987C36.6241 38.0216 36.6341 38.0462 36.6493 38.0685C36.6871 38.1256 36.7305 38.1788 36.7788 38.2273L44.1054 45.5556C44.2977 45.7479 44.5585 45.8559 44.8305 45.8559C45.1024 45.8559 45.3632 45.7479 45.5556 45.5556C45.7479 45.3633 45.8559 45.1024 45.8559 44.8305C45.8559 44.5585 45.7479 44.2977 45.5556 44.1054L39.9757 38.5255H71.1915C71.4634 38.5255 71.7243 38.4175 71.9165 38.2252C72.1088 38.0329 72.2169 37.7721 72.2169 37.5001C72.2169 37.2282 72.1088 36.9673 71.9165 36.775C71.7243 36.5827 71.4634 36.4747 71.1915 36.4747Z" fill="#0D2C56"/>
    <path d="M56.2499 42.334C55.9779 42.334 55.7171 42.4421 55.5248 42.6344C55.3325 42.8267 55.2245 43.0875 55.2245 43.3594V64.9805H28.8333V10.0196H55.2245V31.6407C55.2245 31.9126 55.3325 32.1735 55.5248 32.3658C55.7171 32.5581 55.9779 32.6661 56.2499 32.6661C56.5218 32.6661 56.7827 32.5581 56.975 32.3658C57.1673 32.1735 57.2753 31.9126 57.2753 31.6407V8.99421C57.2753 8.72226 57.1673 8.46144 56.975 8.26915C56.7827 8.07685 56.5218 7.96882 56.2499 7.96882H28.8333V3.80866C28.8334 3.63776 28.7908 3.46954 28.7093 3.31931C28.6278 3.16907 28.5101 3.04158 28.3668 2.94843C28.2235 2.85528 28.0592 2.79941 27.8889 2.78592C27.7185 2.77242 27.5475 2.80172 27.3913 2.87116L4.06631 13.2382C3.88505 13.3188 3.73108 13.4503 3.62303 13.6167C3.51498 13.7831 3.45749 13.9773 3.45752 14.1757V60.8251C3.45749 61.0235 3.51498 61.2176 3.62303 61.384C3.73108 61.5504 3.88505 61.6819 4.06631 61.7626L27.3913 72.129C27.5475 72.1984 27.7185 72.2277 27.8889 72.2142C28.0592 72.2007 28.2235 72.1449 28.3668 72.0517C28.5101 71.9585 28.6278 71.8311 28.7093 71.6808C28.7908 71.5306 28.8334 71.3624 28.8333 71.1915V67.0313H56.2499C56.5218 67.0313 56.7827 66.9233 56.975 66.731C57.1673 66.5387 57.2753 66.2779 57.2753 66.0059V43.3594C57.2753 43.0875 57.1673 42.8267 56.975 42.6344C56.7827 42.4421 56.5218 42.334 56.2499 42.334ZM26.7825 69.6141L5.50771 60.1583V14.8419L26.7825 5.386V69.6141Z" fill="#0D2C56"/>
    <path d="M7.66162 56.8846C7.93357 56.8846 8.19438 56.7766 8.38668 56.5843C8.57898 56.392 8.68701 56.1312 8.68701 55.8592V39.0627C8.68701 38.7908 8.57898 38.53 8.38668 38.3377C8.19438 38.1454 7.93357 38.0374 7.66162 38.0374C7.38967 38.0374 7.12886 38.1454 6.93656 38.3377C6.74426 38.53 6.63623 38.7908 6.63623 39.0627V55.8592C6.63623 56.1312 6.74426 56.392 6.93656 56.5843C7.12886 56.7766 7.38967 56.8846 7.66162 56.8846Z" fill="#0D2C56"/>
</svg>
