<svg width="77" height="75" viewBox="0 0 77 75" fill="none" xmlns="http://www.w3.org/2000/svg">
    <path d="M39.5 75C60.1776 75 77 58.1776 77 37.5C77 16.8224 60.1776 0 39.5 0C18.8224 0 2 16.8224 2 37.5C2 58.1776 18.8224 75 39.5 75ZM39.5 3.34395C58.334 3.34395 73.6561 18.666 73.6561 37.5C73.6561 56.334 58.334 71.6561 39.5 71.6561C20.666 71.6561 5.34395 56.334 5.34395 37.5C5.34395 18.666 20.666 3.34395 39.5 3.34395Z" fill="#0D2C56"/>
    <path d="M30.2565 34.1298C34.0809 34.1298 37.1804 31.0294 37.1804 27.2059C37.1814 23.3814 34.0809 20.281 30.2565 20.281C26.432 20.281 23.3325 23.3814 23.3325 27.205C23.3363 31.0275 26.4339 34.1252 30.2565 34.1298ZM30.2565 23.625C32.2335 23.625 33.8365 25.2279 33.8365 27.205C33.8374 29.183 32.2345 30.7859 30.2565 30.7859C28.2794 30.7859 26.6765 29.183 26.6765 27.205C26.6783 25.2288 28.2803 23.6278 30.2565 23.625Z" fill="#0D2C56"/>
    <path d="M41.3997 48.2149C41.3997 52.0394 44.5001 55.1389 48.3236 55.1389C52.148 55.1389 55.2485 52.0394 55.2485 48.2149C55.2485 44.3905 52.148 41.29 48.3236 41.29C44.501 41.2947 41.4043 44.3923 41.3997 48.2149ZM51.9045 48.2149C51.9045 50.192 50.3016 51.7949 48.3236 51.7949C46.3465 51.7949 44.7436 50.192 44.7436 48.2149C44.7436 46.2379 46.3465 44.6349 48.3236 44.634C50.3007 44.6368 51.9017 46.2379 51.9045 48.2149Z" fill="#0D2C56"/>
    <path d="M26.7689 57.0208C27.5424 57.5255 28.579 57.3072 29.0828 56.5337L52.7181 20.2933C53.0456 19.7923 53.0811 19.155 52.8114 18.6213C52.5408 18.0876 52.0062 17.7387 51.4091 17.707C50.8119 17.6752 50.2428 17.9645 49.9172 18.4664L26.2819 54.7069C25.7771 55.4813 25.9955 56.5169 26.7689 57.0208Z" fill="#0D2C56"/>
</svg>
