<svg width="77" height="75" viewBox="0 0 77 75" fill="none" xmlns="http://www.w3.org/2000/svg">
    <path d="M65.1556 25.6556C65.1556 11.4864 53.6692 0 39.5 0C25.3308 0 13.8443 11.4864 13.8443 25.6556C10.1813 26.1117 6.71777 28.5063 6.71777 34.065V47.4629C6.71777 53.7343 11.1077 56.0148 15.2697 56.0148H19.4031C20.1902 56.0148 20.8284 55.3766 20.8284 54.5895V26.9954C20.8284 26.2083 20.1902 25.5701 19.4031 25.5701H16.695C16.695 12.9753 26.9052 2.76511 39.5 2.76511C52.0948 2.76511 62.305 12.9753 62.305 25.5701H59.5969C58.8098 25.5701 58.1716 26.2083 58.1716 26.9954V54.5468C58.1716 55.3339 58.8098 55.9721 59.5969 55.9721H62.305C61.9059 65.764 57.2024 68.0587 47.8096 68.4721V67.5171C47.8096 65.9427 46.5334 64.6665 44.9589 64.6665H35.9937C34.4193 64.6665 33.1431 65.9427 33.1431 67.5171V72.1494C33.1431 73.7238 34.4193 75 35.9937 75H44.9874C46.5619 75 47.8381 73.7238 47.8381 72.1494V71.3227C56.8745 70.9094 64.6853 69.0422 65.1556 55.8865C68.8187 55.4304 72.2822 53.0359 72.2822 47.4772V34.0792C72.2822 28.492 68.8329 26.1117 65.1556 25.6556ZM17.9777 28.321V53.1214H15.1984C13.0889 53.1214 9.49713 52.3803 9.49713 47.4202V34.0222C9.49713 29.1049 13.0462 28.321 15.1984 28.321H17.9777ZM44.9874 69.9972V72.1636H35.9937V67.5314H44.9874V69.9972ZM69.4316 47.4629C69.4316 52.3803 65.8825 53.1642 63.7303 53.1642H61.0222V28.4208H63.8016C65.911 28.4208 69.5028 29.1619 69.5028 34.122L69.4316 47.4629Z" fill="#0D2C56"/>
</svg>
