<svg width="77" height="75" viewBox="0 0 77 75" fill="none" xmlns="http://www.w3.org/2000/svg">
    <path d="M54.7913 4.77305V1.58174C54.7913 0.812549 54.1676 0.188818 53.3984 0.188818C52.6292 0.188818 52.0055 0.812549 52.0055 1.58174V4.77305H45.5259V1.39292C45.5259 0.62373 44.9022 0 44.133 0C43.3638 0 42.74 0.62373 42.74 1.39292V4.77305H36.2605V1.4874C36.2605 0.718213 35.6367 0.0944824 34.8675 0.0944824C34.0983 0.0944824 33.4746 0.718213 33.4746 1.4874V4.77319H26.9947V1.67622C26.9947 0.907031 26.371 0.283301 25.6018 0.283301C24.8326 0.283301 24.2089 0.907031 24.2089 1.67622V4.77305H14.751V75H64.2491V4.77305H54.7913ZM17.537 72.2133V7.55991H24.2063V10.9409C24.2063 11.7101 24.83 12.3338 25.5992 12.3338C26.3684 12.3338 26.9921 11.7101 26.9921 10.9409V7.55991H33.4717V10.7512C33.4717 11.5204 34.0954 12.1441 34.8646 12.1441C35.6338 12.1441 36.2575 11.5204 36.2575 10.7512V7.55991H42.7371V10.6567C42.7371 11.4259 43.3608 12.0497 44.13 12.0497C44.8992 12.0497 45.523 11.4259 45.523 10.6567V7.55991H52.0025V10.8464C52.0025 11.6156 52.6263 12.2394 53.3955 12.2394C54.1647 12.2394 54.7884 11.6156 54.7884 10.8464V7.55991H61.4586V72.2133H17.537Z" fill="#0D2C56"/>
    <path d="M32.5421 20.9287H22.2605V23.7154H32.5421V20.9287Z" fill="#0D2C56"/>
    <path d="M56.7732 20.9287H35.853V23.7154H56.7732V20.9287Z" fill="#0D2C56"/>
    <path d="M32.5421 28.1501H22.2605V30.9369H32.5421V28.1501Z" fill="#0D2C56"/>
    <path d="M56.7732 28.1501H35.853V30.9369H56.7732V28.1501Z" fill="#0D2C56"/>
    <path d="M32.5421 35.3765H22.2605V38.1632H32.5421V35.3765Z" fill="#0D2C56"/>
    <path d="M56.7732 35.3765H35.853V38.1632H56.7732V35.3765Z" fill="#0D2C56"/>
    <path d="M44.915 43.4639V55.0301H56.4813V43.4639H44.915ZM53.6938 52.2434H47.701V46.2497H53.6938V52.2434Z" fill="#0D2C56"/>
</svg>
