<svg width="20" height="20" viewBox="0 0 20 20" fill="none" xmlns="http://www.w3.org/2000/svg">
    <path d="M8.45898 12.8457C8.51647 12.9259 8.59226 12.9913 8.68006 13.0364C8.76786 13.0815 8.86515 13.1051 8.96386 13.1051C9.06257 13.1051 9.15986 13.0815 9.24766 13.0364C9.33546 12.9913 9.41125 12.9259 9.46874 12.8457L13.582 7.14258C13.6562 7.03906 13.582 6.89453 13.4551 6.89453H12.539C12.3398 6.89453 12.1504 6.99023 12.0332 7.1543L8.96484 11.4121L7.57422 9.48242C7.45703 9.32031 7.26953 9.22266 7.06836 9.22266H6.15235C6.02539 9.22266 5.95118 9.36719 6.02539 9.4707L8.45898 12.8457Z"
          fill="#333333"/>
    <path d="M17.1875 2.1875H2.8125C2.4668 2.1875 2.1875 2.4668 2.1875 2.8125V17.1875C2.1875 17.5332 2.4668 17.8125 2.8125 17.8125H17.1875C17.5332 17.8125 17.8125 17.5332 17.8125 17.1875V2.8125C17.8125 2.4668 17.5332 2.1875 17.1875 2.1875ZM16.4062 16.4062H3.59375V3.59375H16.4062V16.4062Z"
          fill="#333333"/>
</svg>
