<svg width="216" height="101" viewBox="0 0 216 101" fill="none" xmlns="http://www.w3.org/2000/svg">
    <rect x="99" width="2" height="140" transform="rotate(45 99 0)" fill="#C4C4C4"/>
    <rect x="104" width="2" height="140" transform="rotate(45 104 0)" fill="#C4C4C4"/>
    <rect x="109" width="2" height="140" transform="rotate(45 109 0)" fill="#C4C4C4"/>
    <rect x="114" width="2" height="140" transform="rotate(45 114 0)" fill="#C4C4C4"/>
    <rect x="119" width="2" height="140" transform="rotate(45 119 0)" fill="#C4C4C4"/>
    <rect x="124" width="2" height="140" transform="rotate(45 124 0)" fill="#C4C4C4"/>
    <rect x="129" width="2" height="140" transform="rotate(45 129 0)" fill="#C4C4C4"/>
    <rect x="134" width="2" height="140" transform="rotate(45 134 0)" fill="#C4C4C4"/>
    <rect x="139" width="2" height="140" transform="rotate(45 139 0)" fill="#C4C4C4"/>
    <rect x="144" width="2" height="140" transform="rotate(45 144 0)" fill="#C4C4C4"/>
    <rect x="149" width="2" height="140" transform="rotate(45 149 0)" fill="#C4C4C4"/>
    <rect x="154" width="2" height="140" transform="rotate(45 154 0)" fill="#C4C4C4"/>
    <rect x="159" width="2" height="140" transform="rotate(45 159 0)" fill="#C4C4C4"/>
    <rect x="164" width="2" height="140" transform="rotate(45 164 0)" fill="#C4C4C4"/>
    <rect x="169" width="2" height="140" transform="rotate(45 169 0)" fill="#C4C4C4"/>
    <rect x="174" width="2" height="140" transform="rotate(45 174 0)" fill="#C4C4C4"/>
    <rect x="179" width="2" height="140" transform="rotate(45 179 0)" fill="#C4C4C4"/>
    <rect x="184" width="2" height="140" transform="rotate(45 184 0)" fill="#C4C4C4"/>
    <rect x="189" width="2" height="140" transform="rotate(45 189 0)" fill="#C4C4C4"/>
    <rect x="194" width="2" height="140" transform="rotate(45 194 0)" fill="#C4C4C4"/>
    <rect x="199" width="2" height="140" transform="rotate(45 199 0)" fill="#C4C4C4"/>
    <rect x="204" width="2" height="140" transform="rotate(45 204 0)" fill="#C4C4C4"/>
    <rect x="209" width="2" height="140" transform="rotate(45 209 0)" fill="#C4C4C4"/>
    <rect x="214" width="2" height="140" transform="rotate(45 214 0)" fill="#C4C4C4"/>
</svg>
