<svg width="60" height="60" viewBox="0 0 60 60" fill="none" xmlns="http://www.w3.org/2000/svg">
    <g clip-path="url(#clip0)">
        <path d="M0 32.2381C0 42.8485 5.66977 52.1731 14.171 57.413C15.3299 55.5699 18.5988 50.371 22.8123 43.6698C18.952 41.2904 16.3774 37.0562 16.3774 32.2381H16.3773H16.3774C16.3774 24.8144 22.4885 18.7748 30 18.7748C37.5115 18.7748 43.6226 24.8144 43.6226 32.2381H43.6227H43.6226C43.6226 37.0562 41.048 41.2904 37.1877 43.6698L45.829 57.413C54.3302 52.1731 60 42.8484 60 32.2381H59.9999H60C60 15.8894 46.5421 2.58887 30 2.58887C13.4579 2.58887 0 15.8894 0 32.2381H0Z" fill="#FFE563"/>
        <path d="M22.1814 34.3404C23.5209 39.3393 28.6179 42.317 33.5659 40.9911C38.514 39.6653 41.4393 34.5381 40.0999 29.5392C38.7604 24.5402 33.6634 21.5626 28.7153 22.8884C23.7673 24.2142 20.8419 29.3415 22.1814 34.3404Z" fill="#9AE2FB"/>
        <path d="M60 32.2371C60 15.8884 46.542 2.58789 30 2.58789C29.1872 2.58789 28.3822 2.62117 27.5854 2.6841C43.0028 3.90344 55.171 16.6919 55.171 32.2371H55.1709H55.171C55.171 41.3916 50.9501 49.5885 44.3319 55.0312L45.829 57.4122C54.3302 52.1723 60 42.8475 60 32.2371V32.2371Z" fill="#FFDC2E"/>
        <path d="M0 32.238C0 42.8484 5.66977 52.173 14.171 57.4131C15.3299 55.57 18.5988 50.371 22.8123 43.6698C18.952 41.2904 16.3774 37.0562 16.3774 32.2382H16.3773H16.3774C16.3774 28.9097 17.6065 25.86 19.6389 23.5076L7.13812 13.0632C2.68898 18.2367 0 24.9323 0 32.238H0Z" fill="#EB5757"/>
        <path d="M60 32.2372C60 24.9315 57.3111 18.2357 52.8619 13.0623L40.3612 23.5067C42.3936 25.8591 43.6226 28.9088 43.6226 32.2373H43.6227H43.6226C43.6226 37.0553 41.048 41.2896 37.1877 43.6689L45.829 57.4122C54.3303 52.1723 60 42.8476 60 32.2372V32.2372Z" fill="#27AE60"/>
        <path d="M60 32.2372C60 24.9315 57.311 18.2357 52.8619 13.0623L49.9282 15.5134C53.2337 20.2771 55.171 26.0371 55.171 32.2372H55.1709H55.171C55.171 41.3916 50.9501 49.5886 44.3319 55.0312L45.829 57.4122C54.3302 52.1723 60 42.8476 60 32.2372V32.2372Z" fill="#219653"/>
        <path d="M26.3361 33.2273C25.585 30.4243 27.5545 27.4931 30.4605 27.2098L52.0465 25.1052C53.3704 24.9762 53.874 26.8558 52.663 27.4059L32.9167 36.3764C30.2585 37.5841 27.0872 36.0303 26.3361 33.2273Z" fill="#50B7DC"/>
        <path d="M32.9167 36.3763L52.663 27.4057C53.874 26.8556 53.3704 24.976 52.0465 25.105L31.6669 31.7117C29.8136 32.5536 27.7121 32.0525 26.3541 30.7226C26.1321 31.5179 26.1086 32.3781 26.3361 33.2271C27.0872 36.0301 30.2585 37.5839 32.9167 36.3763Z" fill="#2862AC"/>
    </g>
    <defs>
        <clipPath id="clip0">
            <rect width="60" height="60" fill="white"/>
        </clipPath>
    </defs>
</svg>
