<svg xmlns="http://www.w3.org/2000/svg" display="none">
    <symbol id="phone" viewBox="0 0 24 24">
        <path d="M15 12H17C17 9.24 14.76 7 12 7V9C13.66 9 15 10.34 15 12ZM19 12H21C21 9.61305 20.0518 7.32387 18.364 5.63604C16.6761 3.94821 14.3869 3 12 3V5C15.87 5 19 8.13 19 12ZM20 15.5C18.75 15.5 17.55 15.3 16.43 14.93C16.33 14.9 16.22 14.88 16.12 14.88C15.86 14.88 15.61 14.98 15.41 15.17L13.21 17.37C10.3712 15.9262 8.06378 13.6188 6.62 10.78L8.82 8.57C8.95245 8.44434 9.04632 8.28352 9.0906 8.1064C9.13488 7.92928 9.12773 7.7432 9.07 7.57C8.69065 6.41806 8.49821 5.2128 8.5 4C8.5 3.45 8.05 3 7.5 3H4C3.45 3 3 3.45 3 4C3 13.39 10.61 21 20 21C20.55 21 21 20.55 21 20V16.5C21 15.95 20.55 15.5 20 15.5ZM5.03 5H6.53C6.6 5.88 6.75 6.75 6.98 7.58L5.78 8.79C5.38 7.58 5.12 6.32 5.03 5ZM19 18.97C17.68 18.88 16.4 18.62 15.2 18.21L16.4 17.01C17.25 17.25 18.12 17.4 19 17.46V18.97Z"/>
    </symbol>
    <symbol id="mail" viewBox="0 0 24 24">
        <path d="M20 4H4C2.9 4 2.01 4.9 2.01 6L2 18C2 19.1 2.9 20 4 20H20C21.1 20 22 19.1 22 18V6C22 4.9 21.1 4 20 4ZM20 18H4V8L12 13L20 8V18ZM12 11L4 6H20L12 11Z"/>
    </symbol>

    <symbol id="attention" viewBox="0 0 22 22">
        <path d="M11 21C16.5228 21 21 16.5228 21 11C21 5.47715 16.5228 1 11 1C5.47715 1 1 5.47715 1 11C1 16.5228 5.47715 21 11 21Z"
              stroke-width="2"/>
        <path d="M11 15.5V16M11 6V12V6Z" stroke-width="2" stroke-linecap="round"/>
    </symbol>

    <symbol id="alert" viewBox="0 0 36 36">
        <path d="M18 2.5C9.18 2.5 2 8.78 2 16.5C2 24.22 9.18 30.5 18 30.5C19.6501 30.4981 21.2922 30.2693 22.88 29.82L28.41 33.34C28.561 33.4369 28.7352 33.4913 28.9145 33.4977C29.0937 33.5041 29.2714 33.4621 29.4289 33.3762C29.5863 33.2903 29.7178 33.1637 29.8095 33.0095C29.9012 32.8554 29.9497 32.6794 29.95 32.5V25.77C31.2012 24.5697 32.1997 23.1312 32.8867 21.5392C33.5736 19.9472 33.9352 18.2338 33.95 16.5C34 8.78 26.82 2.5 18 2.5ZM28.29 24.61C28.1895 24.7032 28.1092 24.8162 28.0541 24.9417C27.9991 25.0673 27.9704 25.2029 27.97 25.34V30.68L23.59 27.89C23.4678 27.8128 23.3304 27.7629 23.1871 27.744C23.0438 27.725 22.8981 27.7373 22.76 27.78C21.2187 28.2587 19.6139 28.5014 18 28.5C10.28 28.5 4 23.12 4 16.5C4 9.88 10.28 4.5 18 4.5C25.72 4.5 32 9.88 32 16.5C31.9772 18.0351 31.6356 19.5487 30.997 20.9448C30.3583 22.3408 29.4365 23.589 28.29 24.61Z"/>
        <path d="M18 20.63C18.2652 20.63 18.5196 20.5246 18.7071 20.3371C18.8946 20.1496 19 19.8952 19 19.63V8.47998C19 8.21476 18.8946 7.96041 18.7071 7.77287C18.5196 7.58534 18.2652 7.47998 18 7.47998C17.7348 7.47998 17.4804 7.58534 17.2929 7.77287C17.1053 7.96041 17 8.21476 17 8.47998V19.61C16.9973 19.743 17.0212 19.8752 17.0703 19.9988C17.1194 20.1225 17.1926 20.2351 17.2857 20.3301C17.3788 20.425 17.49 20.5005 17.6126 20.552C17.7353 20.6035 17.867 20.63 18 20.63Z"/>
        <path d="M18 25.37C18.7346 25.37 19.33 24.7745 19.33 24.04C19.33 23.3054 18.7346 22.71 18 22.71C17.2655 22.71 16.67 23.3054 16.67 24.04C16.67 24.7745 17.2655 25.37 18 25.37Z"/>
    </symbol>

</svg>